<svg width="901" height="901" viewBox="0 0 901 901" fill="none" xmlns="http://www.w3.org/2000/svg">
<g clip-path="url(#clip0_44_21)">
<rect width="901" height="901" fill="#F2F4F9"/>
<path d="M76.9141 45.041L72.207 58H70.2832L75.7031 43.7812H76.9434L76.9141 45.041ZM80.8594 58L76.1426 45.041L76.1133 43.7812H77.3535L82.793 58H80.8594ZM80.6152 52.7363V54.2793H72.627V52.7363H80.6152ZM86.2305 49.6895V58H84.4238V47.4336H86.1328L86.2305 49.6895ZM85.8008 52.3164L85.0488 52.2871C85.0553 51.5645 85.1628 50.8971 85.3711 50.2852C85.5794 49.6667 85.8724 49.1296 86.25 48.6738C86.6276 48.2181 87.0768 47.8665 87.5977 47.6191C88.125 47.3652 88.7077 47.2383 89.3457 47.2383C89.8665 47.2383 90.3353 47.3099 90.752 47.4531C91.1686 47.5898 91.5234 47.8112 91.8164 48.1172C92.1159 48.4232 92.3438 48.8203 92.5 49.3086C92.6562 49.7904 92.7344 50.3796 92.7344 51.0762V58H90.918V51.0566C90.918 50.5033 90.8366 50.0605 90.6738 49.7285C90.5111 49.39 90.2734 49.1458 89.9609 48.9961C89.6484 48.8398 89.2643 48.7617 88.8086 48.7617C88.3594 48.7617 87.9492 48.8561 87.5781 49.0449C87.2135 49.2337 86.8978 49.4941 86.6309 49.8262C86.3704 50.1582 86.1654 50.5391 86.0156 50.9688C85.8724 51.3919 85.8008 51.8411 85.8008 52.3164ZM102.139 55.9492V43H103.955V58H102.295L102.139 55.9492ZM95.0293 52.834V52.6289C95.0293 51.8216 95.127 51.0892 95.3223 50.4316C95.5241 49.7676 95.8073 49.1979 96.1719 48.7227C96.543 48.2474 96.9824 47.8828 97.4902 47.6289C98.0046 47.3685 98.5775 47.2383 99.209 47.2383C99.873 47.2383 100.452 47.3555 100.947 47.5898C101.449 47.8177 101.872 48.153 102.217 48.5957C102.568 49.0319 102.845 49.5592 103.047 50.1777C103.249 50.7962 103.389 51.4961 103.467 52.2773V53.1758C103.395 53.9505 103.255 54.6471 103.047 55.2656C102.845 55.8841 102.568 56.4115 102.217 56.8477C101.872 57.2839 101.449 57.6191 100.947 57.8535C100.446 58.0814 99.86 58.1953 99.1895 58.1953C98.571 58.1953 98.0046 58.0618 97.4902 57.7949C96.9824 57.528 96.543 57.1536 96.1719 56.6719C95.8073 56.1901 95.5241 55.6237 95.3223 54.9727C95.127 54.3151 95.0293 53.6022 95.0293 52.834ZM96.8457 52.6289V52.834C96.8457 53.3613 96.8978 53.8561 97.002 54.3184C97.1126 54.7806 97.2819 55.1875 97.5098 55.5391C97.7376 55.8906 98.0273 56.1673 98.3789 56.3691C98.7305 56.5645 99.1504 56.6621 99.6387 56.6621C100.238 56.6621 100.729 56.5352 101.113 56.2812C101.504 56.0273 101.816 55.6921 102.051 55.2754C102.285 54.8587 102.467 54.4062 102.598 53.918V51.5645C102.52 51.2064 102.406 50.8613 102.256 50.5293C102.113 50.1908 101.924 49.8913 101.689 49.6309C101.462 49.3639 101.178 49.1523 100.84 48.9961C100.508 48.8398 100.114 48.7617 99.6582 48.7617C99.1634 48.7617 98.737 48.8659 98.3789 49.0742C98.0273 49.276 97.7376 49.556 97.5098 49.9141C97.2819 50.2656 97.1126 50.6758 97.002 51.1445C96.8978 51.6068 96.8457 52.1016 96.8457 52.6289ZM108.574 49.0938V58H106.768V47.4336H108.525L108.574 49.0938ZM111.875 47.375L111.865 49.0547C111.715 49.0221 111.572 49.0026 111.436 48.9961C111.305 48.9831 111.156 48.9766 110.986 48.9766C110.57 48.9766 110.202 49.0417 109.883 49.1719C109.564 49.3021 109.294 49.4844 109.072 49.7188C108.851 49.9531 108.675 50.2331 108.545 50.5586C108.421 50.8776 108.34 51.2292 108.301 51.6133L107.793 51.9062C107.793 51.2682 107.855 50.6693 107.979 50.1094C108.109 49.5495 108.307 49.0547 108.574 48.625C108.841 48.1888 109.18 47.8503 109.59 47.6094C110.007 47.362 110.501 47.2383 111.074 47.2383C111.204 47.2383 111.354 47.2546 111.523 47.2871C111.693 47.3132 111.81 47.3424 111.875 47.375ZM117.734 58.1953C116.999 58.1953 116.331 58.0716 115.732 57.8242C115.14 57.5703 114.629 57.2155 114.199 56.7598C113.776 56.304 113.451 55.7637 113.223 55.1387C112.995 54.5137 112.881 53.8301 112.881 53.0879V52.6777C112.881 51.8184 113.008 51.0534 113.262 50.3828C113.516 49.7057 113.861 49.1328 114.297 48.6641C114.733 48.1953 115.228 47.8405 115.781 47.5996C116.335 47.3587 116.908 47.2383 117.5 47.2383C118.255 47.2383 118.906 47.3685 119.453 47.6289C120.007 47.8893 120.459 48.2539 120.811 48.7227C121.162 49.1849 121.423 49.7318 121.592 50.3633C121.761 50.9883 121.846 51.6719 121.846 52.4141V53.2246H113.955V51.75H120.039V51.6133C120.013 51.1445 119.915 50.6888 119.746 50.2461C119.583 49.8034 119.323 49.4388 118.965 49.1523C118.607 48.8659 118.118 48.7227 117.5 48.7227C117.09 48.7227 116.712 48.8105 116.367 48.9863C116.022 49.1556 115.726 49.4095 115.479 49.748C115.231 50.0866 115.039 50.5 114.902 50.9883C114.766 51.4766 114.697 52.0397 114.697 52.6777V53.0879C114.697 53.5892 114.766 54.0612 114.902 54.5039C115.046 54.9401 115.251 55.3242 115.518 55.6562C115.791 55.9883 116.12 56.2487 116.504 56.4375C116.895 56.6263 117.337 56.7207 117.832 56.7207C118.47 56.7207 119.01 56.5905 119.453 56.3301C119.896 56.0697 120.283 55.7214 120.615 55.2852L121.709 56.1543C121.481 56.4993 121.191 56.8281 120.84 57.1406C120.488 57.4531 120.055 57.707 119.541 57.9023C119.033 58.0977 118.431 58.1953 117.734 58.1953ZM126.787 56.9062L129.727 47.4336H131.66L127.422 59.6309C127.324 59.8913 127.194 60.1712 127.031 60.4707C126.875 60.7767 126.673 61.0664 126.426 61.3398C126.178 61.6133 125.879 61.8346 125.527 62.0039C125.182 62.1797 124.769 62.2676 124.287 62.2676C124.144 62.2676 123.962 62.248 123.74 62.209C123.519 62.1699 123.363 62.1374 123.271 62.1113L123.262 60.6465C123.314 60.653 123.395 60.6595 123.506 60.666C123.623 60.679 123.704 60.6855 123.75 60.6855C124.16 60.6855 124.508 60.6302 124.795 60.5195C125.081 60.4154 125.322 60.2363 125.518 59.9824C125.719 59.735 125.892 59.3932 126.035 58.957L126.787 56.9062ZM124.629 47.4336L127.373 55.6367L127.842 57.541L126.543 58.2051L122.656 47.4336H124.629ZM143.77 52.4238H139.971V50.8906H143.77C144.505 50.8906 145.101 50.7734 145.557 50.5391C146.012 50.3047 146.344 49.9792 146.553 49.5625C146.768 49.1458 146.875 48.6706 146.875 48.1367C146.875 47.6484 146.768 47.1895 146.553 46.7598C146.344 46.3301 146.012 45.985 145.557 45.7246C145.101 45.4577 144.505 45.3242 143.77 45.3242H140.41V58H138.525V43.7812H143.77C144.844 43.7812 145.752 43.9668 146.494 44.3379C147.236 44.709 147.799 45.2233 148.184 45.8809C148.568 46.5319 148.76 47.2773 148.76 48.1172C148.76 49.0286 148.568 49.8066 148.184 50.4512C147.799 51.0957 147.236 51.5872 146.494 51.9258C145.752 52.2578 144.844 52.4238 143.77 52.4238ZM155.117 58.1953C154.382 58.1953 153.714 58.0716 153.115 57.8242C152.523 57.5703 152.012 57.2155 151.582 56.7598C151.159 56.304 150.833 55.7637 150.605 55.1387C150.378 54.5137 150.264 53.8301 150.264 53.0879V52.6777C150.264 51.8184 150.391 51.0534 150.645 50.3828C150.898 49.7057 151.243 49.1328 151.68 48.6641C152.116 48.1953 152.611 47.8405 153.164 47.5996C153.717 47.3587 154.29 47.2383 154.883 47.2383C155.638 47.2383 156.289 47.3685 156.836 47.6289C157.389 47.8893 157.842 48.2539 158.193 48.7227C158.545 49.1849 158.805 49.7318 158.975 50.3633C159.144 50.9883 159.229 51.6719 159.229 52.4141V53.2246H151.338V51.75H157.422V51.6133C157.396 51.1445 157.298 50.6888 157.129 50.2461C156.966 49.8034 156.706 49.4388 156.348 49.1523C155.99 48.8659 155.501 48.7227 154.883 48.7227C154.473 48.7227 154.095 48.8105 153.75 48.9863C153.405 49.1556 153.109 49.4095 152.861 49.748C152.614 50.0866 152.422 50.5 152.285 50.9883C152.148 51.4766 152.08 52.0397 152.08 52.6777V53.0879C152.08 53.5892 152.148 54.0612 152.285 54.5039C152.428 54.9401 152.633 55.3242 152.9 55.6562C153.174 55.9883 153.503 56.2487 153.887 56.4375C154.277 56.6263 154.72 56.7207 155.215 56.7207C155.853 56.7207 156.393 56.5905 156.836 56.3301C157.279 56.0697 157.666 55.7214 157.998 55.2852L159.092 56.1543C158.864 56.4993 158.574 56.8281 158.223 57.1406C157.871 57.4531 157.438 57.707 156.924 57.9023C156.416 58.0977 155.814 58.1953 155.117 58.1953ZM165.762 47.4336V48.8203H160.049V47.4336H165.762ZM161.982 44.8652H163.789V55.3828C163.789 55.7409 163.844 56.0111 163.955 56.1934C164.066 56.3757 164.209 56.4961 164.385 56.5547C164.561 56.6133 164.749 56.6426 164.951 56.6426C165.101 56.6426 165.257 56.6296 165.42 56.6035C165.589 56.571 165.716 56.5449 165.801 56.5254L165.811 58C165.667 58.0456 165.479 58.0879 165.244 58.127C165.016 58.1725 164.74 58.1953 164.414 58.1953C163.971 58.1953 163.564 58.1074 163.193 57.9316C162.822 57.7559 162.526 57.4629 162.305 57.0527C162.09 56.6361 161.982 56.0762 161.982 55.373V44.8652ZM169.688 49.0938V58H167.881V47.4336H169.639L169.688 49.0938ZM172.988 47.375L172.979 49.0547C172.829 49.0221 172.686 49.0026 172.549 48.9961C172.419 48.9831 172.269 48.9766 172.1 48.9766C171.683 48.9766 171.315 49.0417 170.996 49.1719C170.677 49.3021 170.407 49.4844 170.186 49.7188C169.964 49.9531 169.788 50.2331 169.658 50.5586C169.535 50.8776 169.453 51.2292 169.414 51.6133L168.906 51.9062C168.906 51.2682 168.968 50.6693 169.092 50.1094C169.222 49.5495 169.421 49.0547 169.688 48.625C169.954 48.1888 170.293 47.8503 170.703 47.6094C171.12 47.362 171.615 47.2383 172.188 47.2383C172.318 47.2383 172.467 47.2546 172.637 47.2871C172.806 47.3132 172.923 47.3424 172.988 47.375ZM177.803 56.9062L180.742 47.4336H182.676L178.438 59.6309C178.34 59.8913 178.21 60.1712 178.047 60.4707C177.891 60.7767 177.689 61.0664 177.441 61.3398C177.194 61.6133 176.895 61.8346 176.543 62.0039C176.198 62.1797 175.785 62.2676 175.303 62.2676C175.16 62.2676 174.977 62.248 174.756 62.209C174.535 62.1699 174.378 62.1374 174.287 62.1113L174.277 60.6465C174.329 60.653 174.411 60.6595 174.521 60.666C174.639 60.679 174.72 60.6855 174.766 60.6855C175.176 60.6855 175.524 60.6302 175.811 60.5195C176.097 60.4154 176.338 60.2363 176.533 59.9824C176.735 59.735 176.908 59.3932 177.051 58.957L177.803 56.9062ZM175.645 47.4336L178.389 55.6367L178.857 57.541L177.559 58.2051L173.672 47.4336H175.645ZM190.381 56.1934V50.7539C190.381 50.3372 190.296 49.9759 190.127 49.6699C189.964 49.3574 189.717 49.1165 189.385 48.9473C189.053 48.778 188.643 48.6934 188.154 48.6934C187.699 48.6934 187.298 48.7715 186.953 48.9277C186.615 49.084 186.348 49.2891 186.152 49.543C185.964 49.7969 185.869 50.0703 185.869 50.3633H184.062C184.062 49.9857 184.16 49.6113 184.355 49.2402C184.551 48.8691 184.831 48.5339 185.195 48.2344C185.566 47.9284 186.009 47.6875 186.523 47.5117C187.044 47.3294 187.624 47.2383 188.262 47.2383C189.03 47.2383 189.707 47.3685 190.293 47.6289C190.885 47.8893 191.348 48.2832 191.68 48.8105C192.018 49.3314 192.188 49.9857 192.188 50.7734V55.6953C192.188 56.0469 192.217 56.4212 192.275 56.8184C192.34 57.2155 192.435 57.5573 192.559 57.8438V58H190.674C190.583 57.7917 190.511 57.515 190.459 57.1699C190.407 56.8184 190.381 56.4928 190.381 56.1934ZM190.693 51.5938L190.713 52.8633H188.887C188.372 52.8633 187.913 52.9056 187.51 52.9902C187.106 53.0684 186.768 53.1888 186.494 53.3516C186.221 53.5143 186.012 53.7194 185.869 53.9668C185.726 54.2077 185.654 54.4909 185.654 54.8164C185.654 55.1484 185.729 55.4512 185.879 55.7246C186.029 55.998 186.253 56.2161 186.553 56.3789C186.859 56.5352 187.233 56.6133 187.676 56.6133C188.229 56.6133 188.717 56.4961 189.141 56.2617C189.564 56.0273 189.899 55.7409 190.146 55.4023C190.4 55.0638 190.537 54.735 190.557 54.416L191.328 55.2852C191.283 55.5586 191.159 55.8613 190.957 56.1934C190.755 56.5254 190.485 56.8444 190.146 57.1504C189.814 57.4499 189.417 57.7005 188.955 57.9023C188.499 58.0977 187.985 58.1953 187.412 58.1953C186.696 58.1953 186.068 58.0553 185.527 57.7754C184.993 57.4954 184.577 57.1211 184.277 56.6523C183.984 56.1771 183.838 55.6465 183.838 55.0605C183.838 54.4941 183.949 53.9961 184.17 53.5664C184.391 53.1302 184.71 52.7689 185.127 52.4824C185.544 52.1895 186.045 51.9681 186.631 51.8184C187.217 51.6686 187.871 51.5938 188.594 51.5938H190.693ZM198.086 56.3691L200.977 47.4336H202.822L199.023 58H197.812L198.086 56.3691ZM195.674 47.4336L198.652 56.418L198.857 58H197.646L193.818 47.4336H195.674ZM206.523 47.4336V58H204.707V47.4336H206.523ZM204.57 44.6309C204.57 44.3379 204.658 44.0905 204.834 43.8887C205.016 43.6868 205.283 43.5859 205.635 43.5859C205.98 43.5859 206.243 43.6868 206.426 43.8887C206.615 44.0905 206.709 44.3379 206.709 44.6309C206.709 44.9108 206.615 45.1517 206.426 45.3535C206.243 45.5488 205.98 45.6465 205.635 45.6465C205.283 45.6465 205.016 45.5488 204.834 45.3535C204.658 45.1517 204.57 44.9108 204.57 44.6309ZM211.23 49.6895V58H209.424V47.4336H211.133L211.23 49.6895ZM210.801 52.3164L210.049 52.2871C210.055 51.5645 210.163 50.8971 210.371 50.2852C210.579 49.6667 210.872 49.1296 211.25 48.6738C211.628 48.2181 212.077 47.8665 212.598 47.6191C213.125 47.3652 213.708 47.2383 214.346 47.2383C214.867 47.2383 215.335 47.3099 215.752 47.4531C216.169 47.5898 216.523 47.8112 216.816 48.1172C217.116 48.4232 217.344 48.8203 217.5 49.3086C217.656 49.7904 217.734 50.3796 217.734 51.0762V58H215.918V51.0566C215.918 50.5033 215.837 50.0605 215.674 49.7285C215.511 49.39 215.273 49.1458 214.961 48.9961C214.648 48.8398 214.264 48.7617 213.809 48.7617C213.359 48.7617 212.949 48.8561 212.578 49.0449C212.214 49.2337 211.898 49.4941 211.631 49.8262C211.37 50.1582 211.165 50.5391 211.016 50.9688C210.872 51.3919 210.801 51.8411 210.801 52.3164ZM234.561 56.5156V58H225.254V56.7012L229.912 51.5156C230.485 50.8776 230.928 50.3372 231.24 49.8945C231.559 49.4453 231.781 49.0449 231.904 48.6934C232.035 48.3353 232.1 47.9707 232.1 47.5996C232.1 47.1309 232.002 46.7077 231.807 46.3301C231.618 45.946 231.338 45.64 230.967 45.4121C230.596 45.1842 230.146 45.0703 229.619 45.0703C228.988 45.0703 228.46 45.194 228.037 45.4414C227.62 45.6823 227.308 46.0208 227.1 46.457C226.891 46.8932 226.787 47.3945 226.787 47.9609H224.98C224.98 47.1602 225.156 46.4277 225.508 45.7637C225.859 45.0996 226.38 44.5723 227.07 44.1816C227.76 43.7845 228.61 43.5859 229.619 43.5859C230.518 43.5859 231.286 43.7454 231.924 44.0645C232.562 44.377 233.05 44.8197 233.389 45.3926C233.734 45.959 233.906 46.623 233.906 47.3848C233.906 47.8014 233.835 48.2246 233.691 48.6543C233.555 49.0775 233.363 49.5007 233.115 49.9238C232.874 50.347 232.591 50.7637 232.266 51.1738C231.947 51.584 231.605 51.9876 231.24 52.3848L227.432 56.5156H234.561ZM245.42 49.7578V51.9258C245.42 53.0911 245.316 54.0742 245.107 54.875C244.899 55.6758 244.6 56.3203 244.209 56.8086C243.818 57.2969 243.346 57.6517 242.793 57.873C242.246 58.0879 241.628 58.1953 240.938 58.1953C240.391 58.1953 239.886 58.127 239.424 57.9902C238.962 57.8535 238.545 57.6354 238.174 57.3359C237.809 57.0299 237.497 56.6328 237.236 56.1445C236.976 55.6562 236.777 55.0638 236.641 54.3672C236.504 53.6706 236.436 52.8568 236.436 51.9258V49.7578C236.436 48.5924 236.54 47.6159 236.748 46.8281C236.963 46.0404 237.266 45.4089 237.656 44.9336C238.047 44.4518 238.516 44.1068 239.062 43.8984C239.616 43.6901 240.234 43.5859 240.918 43.5859C241.471 43.5859 241.979 43.6543 242.441 43.791C242.91 43.9212 243.327 44.1328 243.691 44.4258C244.056 44.7122 244.365 45.0964 244.619 45.5781C244.88 46.0534 245.078 46.6361 245.215 47.3262C245.352 48.0163 245.42 48.8268 245.42 49.7578ZM243.604 52.2188V49.4551C243.604 48.8171 243.564 48.2572 243.486 47.7754C243.415 47.2871 243.307 46.8704 243.164 46.5254C243.021 46.1803 242.839 45.9004 242.617 45.6855C242.402 45.4707 242.152 45.3145 241.865 45.2168C241.585 45.1126 241.27 45.0605 240.918 45.0605C240.488 45.0605 240.107 45.1419 239.775 45.3047C239.443 45.4609 239.163 45.7116 238.936 46.0566C238.714 46.4017 238.545 46.8542 238.428 47.4141C238.311 47.974 238.252 48.6543 238.252 49.4551V52.2188C238.252 52.8568 238.288 53.4199 238.359 53.9082C238.438 54.3965 238.551 54.8197 238.701 55.1777C238.851 55.5293 239.033 55.819 239.248 56.0469C239.463 56.2747 239.71 56.444 239.99 56.5547C240.277 56.6589 240.592 56.7109 240.938 56.7109C241.38 56.7109 241.768 56.6263 242.1 56.457C242.432 56.2878 242.708 56.0241 242.93 55.666C243.158 55.3014 243.327 54.8359 243.438 54.2695C243.548 53.6966 243.604 53.013 243.604 52.2188ZM257.061 56.5156V58H247.754V56.7012L252.412 51.5156C252.985 50.8776 253.428 50.3372 253.74 49.8945C254.059 49.4453 254.281 49.0449 254.404 48.6934C254.535 48.3353 254.6 47.9707 254.6 47.5996C254.6 47.1309 254.502 46.7077 254.307 46.3301C254.118 45.946 253.838 45.64 253.467 45.4121C253.096 45.1842 252.646 45.0703 252.119 45.0703C251.488 45.0703 250.96 45.194 250.537 45.4414C250.12 45.6823 249.808 46.0208 249.6 46.457C249.391 46.8932 249.287 47.3945 249.287 47.9609H247.48C247.48 47.1602 247.656 46.4277 248.008 45.7637C248.359 45.0996 248.88 44.5723 249.57 44.1816C250.26 43.7845 251.11 43.5859 252.119 43.5859C253.018 43.5859 253.786 43.7454 254.424 44.0645C255.062 44.377 255.55 44.8197 255.889 45.3926C256.234 45.959 256.406 46.623 256.406 47.3848C256.406 47.8014 256.335 48.2246 256.191 48.6543C256.055 49.0775 255.863 49.5007 255.615 49.9238C255.374 50.347 255.091 50.7637 254.766 51.1738C254.447 51.584 254.105 51.9876 253.74 52.3848L249.932 56.5156H257.061ZM264.932 43.7031V58H263.125V45.959L259.482 47.2871V45.6562L264.648 43.7031H264.932Z" fill="#2E2E2E"/>
<path d="M90.9883 826.406V843.809C90.9766 846.223 90.2148 848.197 88.7031 849.732C87.2031 851.268 85.1641 852.129 82.5859 852.316L81.6895 852.352C78.8887 852.352 76.6562 851.596 74.9922 850.084C73.3281 848.572 72.4844 846.492 72.4609 843.844V826.406H75.8008V843.738C75.8008 845.59 76.3105 847.031 77.3301 848.062C78.3496 849.082 79.8027 849.592 81.6895 849.592C83.5996 849.592 85.0586 849.082 86.0664 848.062C87.0859 847.043 87.5957 845.607 87.5957 843.756V826.406H90.9883ZM99.9355 852H96.5605V826.406H99.9355V852ZM106.264 854.197H103.469L114.156 826.406H116.934L106.264 854.197ZM138.977 826.406V843.809C138.965 846.223 138.203 848.197 136.691 849.732C135.191 851.268 133.152 852.129 130.574 852.316L129.678 852.352C126.877 852.352 124.645 851.596 122.98 850.084C121.316 848.572 120.473 846.492 120.449 843.844V826.406H123.789V843.738C123.789 845.59 124.299 847.031 125.318 848.062C126.338 849.082 127.791 849.592 129.678 849.592C131.588 849.592 133.047 849.082 134.055 848.062C135.074 847.043 135.584 845.607 135.584 843.756V826.406H138.977ZM152.652 836.215L158.787 826.406H162.76L154.674 839.098L162.953 852H158.945L152.652 842.016L146.324 852H142.334L150.631 839.098L142.527 826.406H146.482L152.652 836.215Z" fill="#2E2E2E"/>
<ellipse cx="859" cy="450.5" rx="444" ry="450.5" fill="#FF4B33"/>
<path d="M119.6 332.723H121.2V351.677H119.6L114.923 339.862C111.067 336.333 106.554 334.569 101.385 334.569C96.2974 334.569 92.0718 336.662 88.7077 340.846C85.4256 345.031 83.7846 350.651 83.7846 357.708V371.615C83.7846 378.754 85.3436 384.415 88.4615 388.6C91.6615 392.703 95.9692 394.754 101.385 394.754C104.01 394.754 106.595 394.221 109.138 393.154C111.682 392.005 113.856 390.446 115.662 388.477L119.969 376.292H121.569V395.738H119.969L114.554 391.923C110.697 395.041 106.513 396.6 102 396.6C93.3026 396.6 86.4513 393.687 81.4462 387.862C76.441 381.954 73.9385 374.282 73.9385 364.846C73.9385 355.328 76.4821 347.615 81.5692 341.708C86.7385 335.718 93.4667 332.723 101.754 332.723C106.349 332.723 110.615 334.2 114.554 337.154L119.6 332.723ZM158.978 379.123V371.615C158.978 367.021 158.034 363.41 156.147 360.785C154.342 358.077 151.552 356.723 147.778 356.723C144.004 356.723 141.173 358.077 139.286 360.785C137.398 363.41 136.455 367.021 136.455 371.615V379.123C136.455 383.636 137.398 387.287 139.286 390.077C141.173 392.785 144.004 394.138 147.778 394.138C151.552 394.138 154.342 392.785 156.147 390.077C158.034 387.287 158.978 383.636 158.978 379.123ZM133.747 390.077C129.973 386.303 128.086 381.421 128.086 375.431C128.086 369.441 129.932 364.559 133.624 360.785C137.316 356.928 141.993 355 147.655 355C153.398 355 158.116 356.928 161.809 360.785C165.501 364.559 167.347 369.4 167.347 375.308C167.347 381.215 165.501 386.097 161.809 389.954C158.116 393.81 153.481 395.738 147.901 395.738C142.322 395.738 137.604 393.851 133.747 390.077ZM170.778 335.923V334.323H184.07V392.785L189.362 393.4V395H170.778V393.4L176.562 392.785V336.538L170.778 335.923ZM191.099 335.923V334.323H204.391V392.785L209.683 393.4V395H191.099V393.4L196.883 392.785V336.538L191.099 335.923ZM242.435 391.062C245.061 389.092 246.702 386.549 247.359 383.431H249.205C248.466 387.205 246.661 390.2 243.789 392.415C240.918 394.631 237.389 395.738 233.205 395.738C227.461 395.738 222.661 393.851 218.805 390.077C215.03 386.385 213.143 381.544 213.143 375.554C213.143 369.482 214.989 364.559 218.682 360.785C222.374 356.928 226.846 355 232.097 355C237.43 355 241.615 356.6 244.651 359.8C247.769 362.918 249.369 366.856 249.451 371.615H221.512V379.123C221.512 383.636 222.497 387.246 224.466 389.954C226.6 392.744 229.471 394.138 233.082 394.138C236.692 394.138 239.81 393.113 242.435 391.062ZM232.589 356.723C229.225 356.723 226.6 357.913 224.712 360.292C222.825 362.59 221.8 365.749 221.635 369.769H241.082C241.082 361.072 238.251 356.723 232.589 356.723ZM263.508 382.2C260.144 382.446 258.462 383.759 258.462 386.138C258.462 387.287 259.118 388.19 260.431 388.846C261.744 389.421 263.385 389.708 265.354 389.708H277.785C281.805 389.708 284.841 390.528 286.892 392.169C289.026 393.728 290.092 396.354 290.092 400.046C290.092 404.887 288.41 408.949 285.046 412.231C281.764 415.513 277.046 417.154 270.892 417.154C264.738 417.154 260.103 416.169 256.985 414.2C253.867 412.313 252.308 409.769 252.308 406.569C252.308 404.682 252.964 403.041 254.277 401.646C255.59 400.251 257.395 399.554 259.692 399.554C260.103 399.554 261.046 399.677 262.523 399.923C260.964 401.564 260.185 403.615 260.185 406.077C260.185 408.621 261.046 410.836 262.769 412.723C264.574 414.692 267.692 415.677 272.123 415.677C276.554 415.677 280.287 414.405 283.323 411.862C286.441 409.318 288 406.446 288 403.246C288 401.031 287.426 399.431 286.277 398.446C285.128 397.544 283.077 397.092 280.123 397.092H265.354C258.215 397.092 254.646 394.59 254.646 389.585C254.646 387.287 255.262 385.441 256.492 384.046C257.723 382.569 259.405 381.585 261.538 381.092C257.6 378.467 255.631 374.733 255.631 369.892C255.631 365.051 257.067 361.359 259.938 358.815C262.892 356.272 266.503 355 270.769 355C275.118 355 278.687 356.108 281.477 358.323C283.446 358.241 284.882 357.831 285.785 357.092C286.769 356.272 287.262 355.369 287.262 354.385C287.262 353.4 287.015 352.662 286.523 352.169C286.031 351.677 285.456 351.431 284.8 351.431C284.8 350.118 285.251 349.051 286.154 348.231C287.056 347.328 288.164 346.877 289.477 346.877C290.79 346.877 291.897 347.287 292.8 348.108C293.703 348.928 294.154 350.241 294.154 352.046C294.154 353.851 293.251 355.533 291.446 357.092C289.723 358.569 286.892 359.431 282.954 359.677C285.415 362.221 286.605 365.585 286.523 369.769C286.523 373.872 285.046 377.236 282.092 379.862C279.221 382.405 275.528 383.677 271.015 383.677C268.144 383.677 265.641 383.185 263.508 382.2ZM279.385 371.123V367.431C279.385 360.046 276.595 356.354 271.015 356.354C265.518 356.354 262.769 360.046 262.769 367.431V371.123C262.769 374.651 263.426 377.4 264.738 379.369C266.133 381.338 268.226 382.323 271.015 382.323C273.805 382.323 275.897 381.338 277.292 379.369C278.687 377.4 279.385 374.651 279.385 371.123ZM323.39 391.062C326.016 389.092 327.657 386.549 328.314 383.431H330.16C329.421 387.205 327.616 390.2 324.744 392.415C321.873 394.631 318.344 395.738 314.16 395.738C308.416 395.738 303.616 393.851 299.76 390.077C295.985 386.385 294.098 381.544 294.098 375.554C294.098 369.482 295.944 364.559 299.637 360.785C303.329 356.928 307.801 355 313.052 355C318.385 355 322.57 356.6 325.606 359.8C328.724 362.918 330.324 366.856 330.406 371.615H302.467V379.123C302.467 383.636 303.452 387.246 305.421 389.954C307.555 392.744 310.426 394.138 314.037 394.138C317.647 394.138 320.765 393.113 323.39 391.062ZM313.544 356.723C310.18 356.723 307.555 357.913 305.667 360.292C303.78 362.59 302.755 365.749 302.59 369.769H322.037C322.037 361.072 319.206 356.723 313.544 356.723ZM378.118 366.938C379.431 366.036 380.087 364.723 380.087 363C380.087 361.195 379.349 359.718 377.872 358.569C376.395 357.338 374.426 356.723 371.964 356.723C368.354 356.723 365.564 358.036 363.595 360.662C361.626 363.205 360.641 366.856 360.641 371.615V379.123C360.641 383.636 361.585 387.287 363.472 390.077C365.359 392.785 368.108 394.138 371.718 394.138C375.328 394.138 378.405 393.154 380.949 391.185C383.492 389.215 385.051 386.631 385.626 383.431H387.349C386.692 387.205 384.969 390.2 382.18 392.415C379.39 394.631 375.985 395.738 371.964 395.738C366.385 395.738 361.708 393.892 357.933 390.2C354.159 386.426 352.272 381.462 352.272 375.308C352.272 369.072 354.2 364.149 358.057 360.538C361.995 356.846 366.385 355 371.226 355C376.149 355 380.087 356.108 383.041 358.323C386.077 360.538 387.595 363.287 387.595 366.569C387.595 368.292 387.144 369.605 386.241 370.508C385.421 371.328 384.313 371.738 382.918 371.738C381.523 371.738 380.374 371.287 379.472 370.385C378.569 369.482 378.118 368.333 378.118 366.938ZM423.267 379.123V371.615C423.267 367.021 422.323 363.41 420.436 360.785C418.631 358.077 415.841 356.723 412.067 356.723C408.292 356.723 405.462 358.077 403.574 360.785C401.687 363.41 400.744 367.021 400.744 371.615V379.123C400.744 383.636 401.687 387.287 403.574 390.077C405.462 392.785 408.292 394.138 412.067 394.138C415.841 394.138 418.631 392.785 420.436 390.077C422.323 387.287 423.267 383.636 423.267 379.123ZM398.036 390.077C394.262 386.303 392.374 381.421 392.374 375.431C392.374 369.441 394.221 364.559 397.913 360.785C401.605 356.928 406.282 355 411.944 355C417.687 355 422.405 356.928 426.097 360.785C429.79 364.559 431.636 369.4 431.636 375.308C431.636 381.215 429.79 386.097 426.097 389.954C422.405 393.81 417.769 395.738 412.19 395.738C406.61 395.738 401.892 393.851 398.036 390.077ZM447.866 355.738V384.785C447.866 390.282 450 393.031 454.266 393.031C458.615 393.031 462.8 390.364 466.82 385.031V357.954L461.405 357.215V355.738H474.328V392.785L479.743 393.4V395H466.82V387.738C462.8 393.072 457.877 395.738 452.051 395.738C448.359 395.738 445.446 394.836 443.312 393.031C441.261 391.226 440.236 388.518 440.236 384.908V357.954L434.82 357.215V355.738H447.866ZM482.065 395V393.4L487.358 392.785V357.954L482.065 357.215V355.738H494.989V361.523C498.189 357.174 501.799 355 505.819 355C507.707 355 509.389 355.492 510.865 356.477C512.342 357.462 513.081 358.774 513.081 360.415C513.081 361.974 512.63 363.205 511.727 364.108C510.824 364.928 509.594 365.338 508.035 365.338C506.558 365.338 505.368 364.723 504.465 363.492C505.04 362.754 505.286 361.974 505.204 361.154C505.204 360.333 504.917 359.636 504.342 359.062C503.768 358.487 502.989 358.2 502.004 358.2C500.035 358.2 497.696 360.251 494.989 364.354V392.785L501.019 393.4V395H482.065ZM523.155 388.231C523.155 392.251 525.862 394.262 531.278 394.262C534.067 394.262 536.488 393.564 538.539 392.169C540.59 390.774 541.616 389.092 541.616 387.123C541.616 385.154 540.919 383.718 539.524 382.815C538.129 381.831 535.831 380.805 532.631 379.738L522.785 376.662C518.272 375.349 516.016 371.985 516.016 366.569C516.016 363.287 517.329 360.538 519.955 358.323C522.58 356.108 525.985 355 530.17 355C534.355 355 537.637 355.738 540.016 357.215C542.396 358.61 543.585 360.497 543.585 362.877C543.585 364.108 543.175 365.174 542.355 366.077C541.534 366.979 540.549 367.431 539.401 367.431C538.252 367.431 537.308 367.144 536.57 366.569C535.914 365.995 535.585 365.215 535.585 364.231C536.57 363.492 537.103 362.508 537.185 361.277C537.185 358.077 534.888 356.477 530.293 356.477C527.011 356.477 524.385 357.133 522.416 358.446C520.529 359.759 519.585 361.277 519.585 363C519.585 364.723 519.914 365.954 520.57 366.692C521.308 367.431 522.662 368.128 524.631 368.785L536.693 372.477C539.483 373.379 541.534 374.733 542.847 376.538C544.242 378.344 544.939 380.805 544.939 383.923C544.939 386.959 543.749 389.708 541.37 392.169C539.072 394.549 535.544 395.738 530.785 395.738C520.529 395.738 515.401 392.949 515.401 387.369C515.401 385.81 515.852 384.538 516.755 383.554C517.657 382.487 518.724 381.954 519.955 381.954C522.334 381.954 523.852 383.021 524.508 385.154C523.606 386.138 523.155 387.164 523.155 388.231ZM579.452 391.062C582.077 389.092 583.718 386.549 584.375 383.431H586.221C585.482 387.205 583.677 390.2 580.806 392.415C577.934 394.631 574.406 395.738 570.221 395.738C564.477 395.738 559.677 393.851 555.821 390.077C552.047 386.385 550.159 381.544 550.159 375.554C550.159 369.482 552.006 364.559 555.698 360.785C559.39 356.928 563.862 355 569.113 355C574.447 355 578.631 356.6 581.667 359.8C584.785 362.918 586.385 366.856 586.467 371.615H558.529V379.123C558.529 383.636 559.513 387.246 561.482 389.954C563.616 392.744 566.488 394.138 570.098 394.138C573.708 394.138 576.826 393.113 579.452 391.062ZM569.606 356.723C566.241 356.723 563.616 357.913 561.729 360.292C559.841 362.59 558.816 365.749 558.652 369.769H578.098C578.098 361.072 575.267 356.723 569.606 356.723ZM599.047 388.231C599.047 392.251 601.755 394.262 607.17 394.262C609.96 394.262 612.38 393.564 614.432 392.169C616.483 390.774 617.509 389.092 617.509 387.123C617.509 385.154 616.811 383.718 615.416 382.815C614.021 381.831 611.724 380.805 608.524 379.738L598.678 376.662C594.165 375.349 591.909 371.985 591.909 366.569C591.909 363.287 593.221 360.538 595.847 358.323C598.473 356.108 601.878 355 606.062 355C610.247 355 613.529 355.738 615.909 357.215C618.288 358.61 619.478 360.497 619.478 362.877C619.478 364.108 619.068 365.174 618.247 366.077C617.427 366.979 616.442 367.431 615.293 367.431C614.144 367.431 613.201 367.144 612.462 366.569C611.806 365.995 611.478 365.215 611.478 364.231C612.462 363.492 612.996 362.508 613.078 361.277C613.078 358.077 610.78 356.477 606.185 356.477C602.903 356.477 600.278 357.133 598.309 358.446C596.421 359.759 595.478 361.277 595.478 363C595.478 364.723 595.806 365.954 596.462 366.692C597.201 367.431 598.555 368.128 600.524 368.785L612.585 372.477C615.375 373.379 617.427 374.733 618.739 376.538C620.134 378.344 620.832 380.805 620.832 383.923C620.832 386.959 619.642 389.708 617.262 392.169C614.965 394.549 611.437 395.738 606.678 395.738C596.421 395.738 591.293 392.949 591.293 387.369C591.293 385.81 591.744 384.538 592.647 383.554C593.55 382.487 594.616 381.954 595.847 381.954C598.227 381.954 599.744 383.021 600.401 385.154C599.498 386.138 599.047 387.164 599.047 388.231ZM71.9692 481V479.4L77.2615 478.785V443.954L71.9692 443.215V441.738H77.2615V435.338C77.2615 424.836 81.6103 419.585 90.3077 419.585C93.2615 419.585 95.7231 420.323 97.6923 421.8C99.6615 423.195 100.646 425.123 100.646 427.585C100.646 429.062 100.195 430.292 99.2923 431.277C98.4718 432.262 97.4051 432.754 96.0923 432.754C94.7795 432.754 93.6308 432.262 92.6462 431.277C91.6615 430.292 91.1692 429.185 91.1692 427.954C92.9744 427.462 93.8769 426.272 93.8769 424.385C93.8769 423.564 93.5077 422.826 92.7692 422.169C92.1128 421.513 91.2923 421.185 90.3077 421.185C88.3385 421.185 86.9436 422.128 86.1231 424.015C85.3026 425.821 84.8923 428.815 84.8923 433V441.738H94.7385V443.215L84.8923 443.954V478.785L93.8769 479.4V481H71.9692ZM128.884 465.123V457.615C128.884 453.021 127.941 449.41 126.053 446.785C124.248 444.077 121.459 442.723 117.684 442.723C113.91 442.723 111.079 444.077 109.192 446.785C107.305 449.41 106.361 453.021 106.361 457.615V465.123C106.361 469.636 107.305 473.287 109.192 476.077C111.079 478.785 113.91 480.138 117.684 480.138C121.459 480.138 124.248 478.785 126.053 476.077C127.941 473.287 128.884 469.636 128.884 465.123ZM103.653 476.077C99.8791 472.303 97.9919 467.421 97.9919 461.431C97.9919 455.441 99.8381 450.559 103.53 446.785C107.223 442.928 111.9 441 117.561 441C123.305 441 128.023 442.928 131.715 446.785C135.407 450.559 137.253 455.4 137.253 461.308C137.253 467.215 135.407 472.097 131.715 475.954C128.023 479.81 123.387 481.738 117.807 481.738C112.228 481.738 107.51 479.851 103.653 476.077ZM141.299 481V479.4L146.592 478.785V443.954L141.299 443.215V441.738H154.222V447.523C157.422 443.174 161.033 441 165.053 441C166.94 441 168.622 441.492 170.099 442.477C171.576 443.462 172.315 444.774 172.315 446.415C172.315 447.974 171.863 449.205 170.961 450.108C170.058 450.928 168.827 451.338 167.268 451.338C165.792 451.338 164.602 450.723 163.699 449.492C164.274 448.754 164.52 447.974 164.438 447.154C164.438 446.333 164.151 445.636 163.576 445.062C163.002 444.487 162.222 444.2 161.238 444.2C159.268 444.2 156.93 446.251 154.222 450.354V478.785L160.253 479.4V481H141.299ZM212.721 441.738V443.215L202.874 443.954V471.154C202.874 476.569 204.803 479.236 208.659 479.154C210.382 479.154 211.982 478.621 213.459 477.554L214.444 478.785C212.146 480.754 209.439 481.738 206.321 481.738C199.018 481.738 195.367 478.251 195.367 471.277V443.954L189.828 443.215V441.738H195.367V435.338L202.874 433.492V441.738H212.721ZM247.054 452.077C247.054 446.497 244.879 443.708 240.531 443.708C236.264 443.708 232.121 446.662 228.1 452.569V478.785L232.654 479.4V481H215.3V479.4L220.469 478.785V422.538L215.3 421.923V420.323H228.1V449.862C232.203 443.954 237.126 441 242.869 441C246.479 441 249.351 441.944 251.485 443.831C253.618 445.636 254.685 448.303 254.685 451.831V478.785L259.977 479.4V481H242.5V479.4L247.054 478.785V452.077ZM292.64 477.062C295.266 475.092 296.907 472.549 297.564 469.431H299.41C298.671 473.205 296.866 476.2 293.994 478.415C291.123 480.631 287.594 481.738 283.41 481.738C277.666 481.738 272.866 479.851 269.01 476.077C265.235 472.385 263.348 467.544 263.348 461.554C263.348 455.482 265.194 450.559 268.887 446.785C272.579 442.928 277.051 441 282.302 441C287.635 441 291.82 442.6 294.856 445.8C297.974 448.918 299.574 452.856 299.656 457.615H271.717V465.123C271.717 469.636 272.702 473.246 274.671 475.954C276.805 478.744 279.676 480.138 283.287 480.138C286.897 480.138 290.015 479.113 292.64 477.062ZM282.794 442.723C279.43 442.723 276.805 443.913 274.917 446.292C273.03 448.59 272.005 451.749 271.84 455.769H291.287C291.287 447.072 288.456 442.723 282.794 442.723ZM329.276 474.231C329.276 478.251 331.983 480.262 337.399 480.262C340.189 480.262 342.609 479.564 344.66 478.169C346.712 476.774 347.737 475.092 347.737 473.123C347.737 471.154 347.04 469.718 345.645 468.815C344.25 467.831 341.953 466.805 338.753 465.738L328.907 462.662C324.394 461.349 322.137 457.985 322.137 452.569C322.137 449.287 323.45 446.538 326.076 444.323C328.701 442.108 332.107 441 336.291 441C340.476 441 343.758 441.738 346.137 443.215C348.517 444.61 349.707 446.497 349.707 448.877C349.707 450.108 349.296 451.174 348.476 452.077C347.655 452.979 346.671 453.431 345.522 453.431C344.373 453.431 343.43 453.144 342.691 452.569C342.035 451.995 341.707 451.215 341.707 450.231C342.691 449.492 343.224 448.508 343.307 447.277C343.307 444.077 341.009 442.477 336.414 442.477C333.132 442.477 330.507 443.133 328.537 444.446C326.65 445.759 325.707 447.277 325.707 449C325.707 450.723 326.035 451.954 326.691 452.692C327.43 453.431 328.783 454.128 330.753 454.785L342.814 458.477C345.604 459.379 347.655 460.733 348.968 462.538C350.363 464.344 351.06 466.805 351.06 469.923C351.06 472.959 349.871 475.708 347.491 478.169C345.194 480.549 341.666 481.738 336.907 481.738C326.65 481.738 321.522 478.949 321.522 473.369C321.522 471.81 321.973 470.538 322.876 469.554C323.778 468.487 324.845 467.954 326.076 467.954C328.455 467.954 329.973 469.021 330.63 471.154C329.727 472.138 329.276 473.164 329.276 474.231ZM377.327 441.738V443.215L367.481 443.954V471.154C367.481 476.569 369.409 479.236 373.265 479.154C374.988 479.154 376.588 478.621 378.065 477.554L379.05 478.785C376.752 480.754 374.045 481.738 370.927 481.738C363.624 481.738 359.973 478.251 359.973 471.277V443.954L354.435 443.215V441.738H359.973V435.338L367.481 433.492V441.738H377.327ZM392.46 441.738V470.785C392.46 476.282 394.593 479.031 398.86 479.031C403.209 479.031 407.393 476.364 411.414 471.031V443.954L405.999 443.215V441.738H418.922V478.785L424.337 479.4V481H411.414V473.738C407.393 479.072 402.47 481.738 396.645 481.738C392.952 481.738 390.04 480.836 387.906 479.031C385.855 477.226 384.829 474.518 384.829 470.908V443.954L379.414 443.215V441.738H392.46ZM458.782 481V473.123C456.075 478.867 451.89 481.738 446.228 481.738C440.649 481.738 436.177 479.892 432.813 476.2C429.531 472.426 427.89 467.462 427.89 461.308C427.89 455.154 429.531 450.231 432.813 446.538C436.177 442.846 440.649 441 446.228 441C451.89 441 456.075 443.913 458.782 449.738V422.538L453.49 421.923V420.323H466.413V478.785L471.705 479.4V481H458.782ZM436.259 457.615V465.123C436.259 474.969 439.746 479.892 446.721 479.892C450.085 479.892 452.916 478.497 455.213 475.708C457.511 472.918 458.7 469.595 458.782 465.738V457.123C458.7 453.185 457.511 449.821 455.213 447.031C452.916 444.241 450.085 442.846 446.721 442.846C439.746 442.846 436.259 447.769 436.259 457.615ZM513.799 441.862V443.215L508.63 445.185L491.522 494.662C490.537 497.615 489.265 499.749 487.706 501.062C486.23 502.456 484.137 503.154 481.43 503.154C478.722 503.154 476.547 502.497 474.906 501.185C473.347 499.872 472.568 498.272 472.568 496.385C472.568 494.497 473.019 493.103 473.922 492.2C474.824 491.297 476.096 490.846 477.737 490.846C479.46 490.846 480.732 491.667 481.553 493.308C480.814 494.292 480.445 495.318 480.445 496.385C480.445 497.533 480.773 498.436 481.43 499.092C482.086 499.749 482.906 500.077 483.891 500.077C486.271 500.077 488.117 498.272 489.43 494.662L493.983 481.492L476.383 444.077L471.337 443.215V441.862H490.168V443.215L484.876 444.2L497.553 471.277L506.66 445.185L500.014 443.215V441.862H513.799ZM562.842 465.123V457.615C562.842 453.021 561.898 449.41 560.011 446.785C558.206 444.077 555.416 442.723 551.642 442.723C547.867 442.723 545.037 444.077 543.149 446.785C541.262 449.41 540.319 453.021 540.319 457.615V465.123C540.319 469.636 541.262 473.287 543.149 476.077C545.037 478.785 547.867 480.138 551.642 480.138C555.416 480.138 558.206 478.785 560.011 476.077C561.898 473.287 562.842 469.636 562.842 465.123ZM537.611 476.077C533.837 472.303 531.949 467.421 531.949 461.431C531.949 455.441 533.796 450.559 537.488 446.785C541.18 442.928 545.857 441 551.519 441C557.262 441 561.98 442.928 565.672 446.785C569.365 450.559 571.211 455.4 571.211 461.308C571.211 467.215 569.365 472.097 565.672 475.954C561.98 479.81 557.344 481.738 551.765 481.738C546.185 481.738 541.467 479.851 537.611 476.077ZM575.257 481V479.4L580.549 478.785V443.954L575.257 443.215V441.738H580.549V435.338C580.549 424.836 584.898 419.585 593.595 419.585C596.549 419.585 599.011 420.323 600.98 421.8C602.949 423.195 603.934 425.123 603.934 427.585C603.934 429.062 603.482 430.292 602.58 431.277C601.759 432.262 600.693 432.754 599.38 432.754C598.067 432.754 596.918 432.262 595.934 431.277C594.949 430.292 594.457 429.185 594.457 427.954C596.262 427.462 597.164 426.272 597.164 424.385C597.164 423.564 596.795 422.826 596.057 422.169C595.4 421.513 594.58 421.185 593.595 421.185C591.626 421.185 590.231 422.128 589.411 424.015C588.59 425.821 588.18 428.815 588.18 433V441.738H598.026V443.215L588.18 443.954V478.785L597.164 479.4V481H575.257ZM82.3077 554.2C78.9436 554.446 77.2615 555.759 77.2615 558.138C77.2615 559.287 77.9179 560.19 79.2308 560.846C80.5436 561.421 82.1846 561.708 84.1538 561.708H96.5846C100.605 561.708 103.641 562.528 105.692 564.169C107.826 565.728 108.892 568.354 108.892 572.046C108.892 576.887 107.21 580.949 103.846 584.231C100.564 587.513 95.8462 589.154 89.6923 589.154C83.5385 589.154 78.9026 588.169 75.7846 586.2C72.6667 584.313 71.1077 581.769 71.1077 578.569C71.1077 576.682 71.7641 575.041 73.0769 573.646C74.3897 572.251 76.1949 571.554 78.4923 571.554C78.9026 571.554 79.8462 571.677 81.3231 571.923C79.7641 573.564 78.9846 575.615 78.9846 578.077C78.9846 580.621 79.8462 582.836 81.5692 584.723C83.3744 586.692 86.4923 587.677 90.9231 587.677C95.3538 587.677 99.0872 586.405 102.123 583.862C105.241 581.318 106.8 578.446 106.8 575.246C106.8 573.031 106.226 571.431 105.077 570.446C103.928 569.544 101.877 569.092 98.9231 569.092H84.1538C77.0154 569.092 73.4462 566.59 73.4462 561.585C73.4462 559.287 74.0615 557.441 75.2923 556.046C76.5231 554.569 78.2051 553.585 80.3385 553.092C76.4 550.467 74.4308 546.733 74.4308 541.892C74.4308 537.051 75.8667 533.359 78.7385 530.815C81.6923 528.272 85.3026 527 89.5692 527C93.9179 527 97.4872 528.108 100.277 530.323C102.246 530.241 103.682 529.831 104.585 529.092C105.569 528.272 106.062 527.369 106.062 526.385C106.062 525.4 105.815 524.662 105.323 524.169C104.831 523.677 104.256 523.431 103.6 523.431C103.6 522.118 104.051 521.051 104.954 520.231C105.856 519.328 106.964 518.877 108.277 518.877C109.59 518.877 110.697 519.287 111.6 520.108C112.503 520.928 112.954 522.241 112.954 524.046C112.954 525.851 112.051 527.533 110.246 529.092C108.523 530.569 105.692 531.431 101.754 531.677C104.215 534.221 105.405 537.585 105.323 541.769C105.323 545.872 103.846 549.236 100.892 551.862C98.0205 554.405 94.3282 555.677 89.8154 555.677C86.9436 555.677 84.441 555.185 82.3077 554.2ZM98.1846 543.123V539.431C98.1846 532.046 95.3949 528.354 89.8154 528.354C84.3179 528.354 81.5692 532.046 81.5692 539.431V543.123C81.5692 546.651 82.2256 549.4 83.5385 551.369C84.9333 553.338 87.0256 554.323 89.8154 554.323C92.6051 554.323 94.6974 553.338 96.0923 551.369C97.4872 549.4 98.1846 546.651 98.1846 543.123ZM142.19 563.062C144.816 561.092 146.457 558.549 147.114 555.431H148.96C148.221 559.205 146.416 562.2 143.544 564.415C140.673 566.631 137.144 567.738 132.96 567.738C127.216 567.738 122.416 565.851 118.56 562.077C114.785 558.385 112.898 553.544 112.898 547.554C112.898 541.482 114.744 536.559 118.437 532.785C122.129 528.928 126.601 527 131.852 527C137.185 527 141.37 528.6 144.406 531.8C147.524 534.918 149.124 538.856 149.206 543.615H121.267V551.123C121.267 555.636 122.252 559.246 124.221 561.954C126.355 564.744 129.226 566.138 132.837 566.138C136.447 566.138 139.565 565.113 142.19 563.062ZM132.344 528.723C128.98 528.723 126.355 529.913 124.467 532.292C122.58 534.59 121.555 537.749 121.39 541.769H140.837C140.837 533.072 138.006 528.723 132.344 528.723ZM184.924 551.123V543.615C184.924 539.021 183.981 535.41 182.093 532.785C180.288 530.077 177.499 528.723 173.724 528.723C169.95 528.723 167.119 530.077 165.232 532.785C163.345 535.41 162.401 539.021 162.401 543.615V551.123C162.401 555.636 163.345 559.287 165.232 562.077C167.119 564.785 169.95 566.138 173.724 566.138C177.499 566.138 180.288 564.785 182.093 562.077C183.981 559.287 184.924 555.636 184.924 551.123ZM159.693 562.077C155.919 558.303 154.032 553.421 154.032 547.431C154.032 541.441 155.878 536.559 159.57 532.785C163.263 528.928 167.94 527 173.601 527C179.345 527 184.063 528.928 187.755 532.785C191.447 536.559 193.293 541.4 193.293 547.308C193.293 553.215 191.447 558.097 187.755 561.954C184.063 565.81 179.427 567.738 173.847 567.738C168.268 567.738 163.55 565.851 159.693 562.077ZM223.062 567V565.4L227.616 564.785V538.077C227.616 532.497 225.606 529.708 221.585 529.708C217.565 529.708 213.791 532.251 210.262 537.338V564.785L214.816 565.4V567H197.339V565.4L202.632 564.785V529.954L197.339 529.215V527.738H210.262V534.754C214.119 529.585 218.632 527 223.801 527C230.283 527 234.057 529.708 235.124 535.123C239.062 529.708 243.657 527 248.908 527C252.519 527 255.308 527.903 257.278 529.708C259.329 531.513 260.355 534.221 260.355 537.831V564.785L265.647 565.4V567H248.293V565.4L252.724 564.785V538.077C252.724 532.497 250.714 529.708 246.693 529.708C242.673 529.708 238.898 532.251 235.37 537.338V564.785L239.924 565.4V567H223.062ZM298.31 563.062C300.936 561.092 302.577 558.549 303.234 555.431H305.08C304.341 559.205 302.536 562.2 299.664 564.415C296.793 566.631 293.264 567.738 289.08 567.738C283.336 567.738 278.536 565.851 274.68 562.077C270.905 558.385 269.018 553.544 269.018 547.554C269.018 541.482 270.864 536.559 274.557 532.785C278.249 528.928 282.721 527 287.972 527C293.305 527 297.49 528.6 300.526 531.8C303.644 534.918 305.244 538.856 305.326 543.615H277.387V551.123C277.387 555.636 278.372 559.246 280.341 561.954C282.475 564.744 285.346 566.138 288.957 566.138C292.567 566.138 295.685 565.113 298.31 563.062ZM288.464 528.723C285.1 528.723 282.475 529.913 280.587 532.292C278.7 534.59 277.675 537.749 277.51 541.769H296.957C296.957 533.072 294.126 528.723 288.464 528.723ZM331.198 527.738V529.215L321.352 529.954V557.154C321.352 562.569 323.28 565.236 327.137 565.154C328.86 565.154 330.46 564.621 331.937 563.554L332.921 564.785C330.624 566.754 327.916 567.738 324.798 567.738C317.496 567.738 313.844 564.251 313.844 557.277V529.954L308.306 529.215V527.738H313.844V521.338L321.352 519.492V527.738H331.198ZM334.147 567V565.4L339.439 564.785V529.954L334.147 529.215V527.738H347.07V533.523C350.27 529.174 353.88 527 357.901 527C359.788 527 361.47 527.492 362.947 528.477C364.424 529.462 365.162 530.774 365.162 532.415C365.162 533.974 364.711 535.205 363.808 536.108C362.906 536.928 361.675 537.338 360.116 537.338C358.639 537.338 357.449 536.723 356.547 535.492C357.121 534.754 357.367 533.974 357.285 533.154C357.285 532.333 356.998 531.636 356.424 531.062C355.849 530.487 355.07 530.2 354.085 530.2C352.116 530.2 349.777 532.251 347.07 536.354V564.785L353.101 565.4V567H334.147ZM406.005 527.862V529.215L400.836 531.185L383.728 580.662C382.743 583.615 381.472 585.749 379.913 587.062C378.436 588.456 376.343 589.154 373.636 589.154C370.928 589.154 368.754 588.497 367.113 587.185C365.554 585.872 364.774 584.272 364.774 582.385C364.774 580.497 365.226 579.103 366.128 578.2C367.031 577.297 368.302 576.846 369.943 576.846C371.667 576.846 372.938 577.667 373.759 579.308C373.02 580.292 372.651 581.318 372.651 582.385C372.651 583.533 372.979 584.436 373.636 585.092C374.292 585.749 375.113 586.077 376.097 586.077C378.477 586.077 380.323 584.272 381.636 580.662L386.19 567.492L368.59 530.077L363.543 529.215V527.862H382.374V529.215L377.082 530.2L389.759 557.277L398.867 531.185L392.22 529.215V527.862H406.005Z" fill="#2E2E2E"/>
</g>
<defs>
<clipPath id="clip0_44_21">
<rect width="901" height="901" fill="white"/>
</clipPath>
</defs>
</svg>
