<svg width="84" height="84" viewBox="0 0 84 84" fill="none" xmlns="http://www.w3.org/2000/svg">
<path d="M43.75 4.375C43.75 3.67881 43.4734 3.01113 42.9812 2.51884C42.4889 2.02656 41.8212 1.75 41.125 1.75C40.4288 1.75 39.7611 2.02656 39.2688 2.51884C38.7766 3.01113 38.5 3.67881 38.5 4.375V34.79L22.5645 18.8475C22.3225 18.5967 22.0329 18.3966 21.7127 18.2588C21.3925 18.1211 21.0481 18.0485 20.6996 18.0453C20.351 18.0422 20.0053 18.1084 19.6827 18.2402C19.36 18.3721 19.0668 18.5669 18.8202 18.8132C18.5737 19.0596 18.3786 19.3526 18.2465 19.6751C18.1143 19.9976 18.0477 20.3433 18.0506 20.6918C18.0535 21.0403 18.1257 21.3848 18.2631 21.7052C18.4006 22.0255 18.6004 22.3152 18.851 22.5575L34.79 38.5H4.375C3.67881 38.5 3.01113 38.7766 2.51884 39.2688C2.02656 39.7611 1.75 40.4288 1.75 41.125C1.75 41.8212 2.02656 42.4889 2.51884 42.9812C3.01113 43.4734 3.67881 43.75 4.375 43.75H34.79L18.851 59.6855C18.3726 60.1804 18.1077 60.8433 18.1133 61.5316C18.119 62.2199 18.3948 62.8784 18.8812 63.3653C19.3677 63.8522 20.026 64.1286 20.7142 64.1349C21.4025 64.1412 22.0657 63.8769 22.561 63.399L38.5 47.4635V77.875C38.5 78.5712 38.7766 79.2389 39.2688 79.7312C39.7611 80.2234 40.4288 80.5 41.125 80.5C41.8212 80.5 42.4889 80.2234 42.9812 79.7312C43.4734 79.2389 43.75 78.5712 43.75 77.875V47.46L59.6855 63.399C60.1804 63.8774 60.8433 64.1423 61.5316 64.1367C62.2199 64.131 62.8784 63.8552 63.3653 63.3688C63.8522 62.8823 64.1286 62.224 64.1349 61.5358C64.1412 60.8475 63.8769 60.1843 63.399 59.689L47.4635 43.75H77.875C78.5712 43.75 79.2389 43.4734 79.7312 42.9812C80.2234 42.4889 80.5 41.8212 80.5 41.125C80.5 40.4288 80.2234 39.7611 79.7312 39.2688C79.2389 38.7766 78.5712 38.5 77.875 38.5H47.46L63.399 22.5645C63.6498 22.3225 63.8499 22.0329 63.9877 21.7127C64.1254 21.3925 64.198 21.0481 64.2011 20.6996C64.2043 20.351 64.1381 20.0053 64.0063 19.6827C63.8744 19.36 63.6796 19.0668 63.4333 18.8202C63.1869 18.5737 62.8939 18.3786 62.5714 18.2465C62.2489 18.1143 61.9032 18.0477 61.5547 18.0506C61.2061 18.0535 60.8617 18.1257 60.5413 18.2631C60.221 18.4006 59.9313 18.6004 59.689 18.851L43.75 34.7865V4.375Z" fill="#282828"/>
</svg>
